# xmcd
#
# Track frame offsets:
#	150
#	5243
#	25091
#	40433
#	57933
#	68703
#	83482
#	100863
#	120261
#	140032
#	157802
#	171429
#	189380
#	208786
#
# Disc length: 2970 seconds
#
# Revision: 0
# Processed by: cddbd v1.5.2PL0 Copyright (c) Steve Scherf et al.
# Submitted via: audiograbber 1.83.01
#
DISCID=b80b980e
DTITLE=Pontus Snibb - Lost And Found
DYEAR=2005
DGENRE=Blues
TTITLE0=Prologue
TTITLE1=Solid Ground
TTITLE2=One Last Time
TTITLE3=Sick And Tired
TTITLE4=Betrayal
TTITLE5=My Darkened Mind
TTITLE6=Falling Apart
TTITLE7=Angel Of Love
TTITLE8=Seize The Day
TTITLE9=Without Your Love
TTITLE10=Forever Thankful
TTITLE11=Paradise
TTITLE12=Leaving Time
TTITLE13=Home Coming
EXTD=
EXTT0=
EXTT1=
EXTT2=
EXTT3=
EXTT4=
EXTT5=
EXTT6=
EXTT7=
EXTT8=
EXTT9=
EXTT10=
EXTT11=
EXTT12=
EXTT13=
PLAYORDER=
